<?xml version="1.0" encoding="UTF-8"?>
<svg width="1133.9" height="185.46" version="1.1" viewBox="0 0 1133.9 185.46" xml:space="preserve" xmlns="http://www.w3.org/2000/svg" xmlns:cc="http://creativecommons.org/ns#" xmlns:dc="http://purl.org/dc/elements/1.1/" xmlns:rdf="http://www.w3.org/1999/02/22-rdf-syntax-ns#">
  <metadata>
    <rdf:RDF>
      <cc:Work rdf:about="">
        <dc:format>image/svg+xml</dc:format>
        <dc:type rdf:resource="http://purl.org/dc/dcmitype/StillImage"/>
        <dc:title/>
      </cc:Work>
    </rdf:RDF>
  </metadata>
  <defs>
    <clipPath id="clipPath28">
      <path d="M 0,841.89 H 1190.551 V 0 H 0 Z"/>
    </clipPath>
  </defs>
  
  <g transform="matrix(1.3333 0 0 -1.3333 -226.77 653.99)">
    <path d="m881.84 415h21.872v-58.871h-21.872z" fill="#005568"/>
    <g transform="translate(-.225)">
      <g clip-path="url(#clipPath28)">
        <g transform="translate(700.22 412.07)">
          <path d="m0 0-0.365 2.917h22.004l0.364-2.164c3.859-22.917 23.536-39.552 46.786-39.552s42.926 16.635 46.784 39.552l0.365 2.164h22.004l-0.365-2.917c-4.329-34.588-33.902-60.67-68.788-60.67-34.888 0-64.46 26.082-68.789 60.67" fill="#005568"/>
        </g>
        <path d="m816.46 485.32h21.872v-58.841h-21.872z" fill="#005568"/>
        <path d="m699.69 485.32h21.872v-58.835h-21.872z" fill="#005568"/>
        <g transform="translate(882.35 429.4)">
          <path d="m0 0c4.332 34.583 33.905 60.662 68.789 60.662 34.883 0 64.454-26.079 68.785-60.662l0.366-2.917h-22.003l-0.366 2.163c-3.861 22.913-23.536 39.544-46.782 39.544-23.247 0-42.923-16.631-46.785-39.544l-0.365-2.163h-22.005z" fill="#005568"/>
        </g>
        <path d="m998.6 415h21.872v-58.871h-21.872z" fill="#005568"/>
        <path d="m925.59 415h51.149v-18.649h-51.149z" fill="#005568"/>
        <g transform="translate(642.44 426.46)">
          <path d="m0 0c-2.642 23.684-22.787 42.16-47.162 42.16-24.369 0-44.507-18.464-47.16-42.136h-21.967c2.727 35.751 32.692 64.008 69.127 64.008 36.436 0 66.398-28.256 69.125-64.005z" fill="#005568"/>
        </g>
        <g transform="translate(606.2 356.57)">
          <path d="m0 0h-21.872v69.91l21.872 0.02z" fill="#005568"/>
        </g>
        <path d="m308.71 356.13h-21.872v58.871h21.872z" fill="#005568"/>
        <g transform="translate(421.54 351.4)">
          <path d="m0 0c-34.885 0-64.459 26.083-68.788 60.67l-0.365 2.918h22.005l0.364-2.164c3.859-22.918 23.534-39.552 46.784-39.552s42.927 16.634 46.787 39.552l0.363 2.164h22.004l-0.364-2.918c-4.329-34.587-33.902-60.67-68.79-60.67" fill="#005568"/>
        </g>
        <path d="m374.09 426.48h-21.872v58.841h21.872z" fill="#005568"/>
        <path d="m490.86 426.48h-21.872v58.835h21.872z" fill="#005568"/>
        <g transform="translate(308.57 426.48)">
          <path d="m0 0h-22.005l-0.365 2.164c-3.862 22.913-23.538 39.544-46.784 39.544-23.247 0-42.921-16.631-46.783-39.544l-0.365-2.164h-22.004l0.366 2.917c4.331 34.583 33.902 60.662 68.786 60.662 34.883 0 64.457-26.079 68.788-60.662z" fill="#005568"/>
        </g>
        <path d="m191.95 356.13h-21.872v58.871h21.872z" fill="#005568"/>
        <path d="m264.96 396.35h-51.149v18.649h51.149z" fill="#005568"/>
      </g>
    </g>
  </g>
</svg>
