<?xml version="1.0" encoding="UTF-8"?>
<svg width="1242.4" height="1429.6" version="1.1" viewBox="0 0 1242.4 1429.6" xmlns="http://www.w3.org/2000/svg" xmlns:cc="http://creativecommons.org/ns#" xmlns:dc="http://purl.org/dc/elements/1.1/" xmlns:rdf="http://www.w3.org/1999/02/22-rdf-syntax-ns#">
 <metadata>
  <rdf:RDF>
   <cc:Work rdf:about="">
    <dc:format>image/svg+xml</dc:format>
    <dc:type rdf:resource="http://purl.org/dc/dcmitype/StillImage"/>
    <dc:title/>
   </cc:Work>
  </rdf:RDF>
 </metadata>
 <g transform="matrix(16.456 0 0 16.456 -210.64 -112.31)" fill="#fff" featureKey="7KWit6-0">
  <g fill="#fff">
   <path d="m28.3 21.6c-0.1 0-0.3 0-0.4-0.1l-14.5-6.4c-0.4-0.2-0.6-0.5-0.6-0.9s0.2-0.8 0.6-0.9l14.5-6.4c0.3-0.1 0.5-0.1 0.8 0l14.5 6.4c0.4 0.2 0.6 0.5 0.6 0.9s-0.2 0.8-0.6 0.9l-14.5 6.4c-0.1 0-0.2 0.1-0.4 0.1zm-12-7.5 12.1 5.3 12.1-5.3-12.2-5.3z"/>
   <rect x="27.3" y="20.6" width="2" height="72.1"/>
   <path d="m28.3 93.7c-0.1 0-0.3 0-0.4-0.1l-14.5-6.4c-0.4-0.2-0.6-0.5-0.6-0.9v-72.2h2v71.5l13.5 6 13.5-6v-71.5h2v72.1c0 0.4-0.2 0.8-0.6 0.9l-14.5 6.4c-0.1 0.1-0.2 0.2-0.4 0.2z"/>
   <path d="m50.8 35.7c-0.1 0-0.3 0-0.4-0.1l-7.9-3.5 0.8-1.8 7.5 3.3 12.1-5.3-12.1-5.3-7.5 3.3-0.8-1.8 7.9-3.5c0.3-0.1 0.5-0.1 0.8 0l14.5 6.4c0.4 0.2 0.6 0.5 0.6 0.9s-0.2 0.8-0.6 0.9l-14.5 6.4c-0.2 0.1-0.3 0.1-0.4 0.1z"/>
   <rect x="49.8" y="34.7" width="2" height="48.1"/>
   <path d="m50.8 83.8c-0.1 0-0.3 0-0.4-0.1l-7.9-3.5 0.8-1.8 7.5 3.3 13.5-6v-47.4h2v48.1c0 0.4-0.2 0.8-0.6 0.9l-14.5 6.4c-0.2 0.1-0.3 0.1-0.4 0.1z"/>
   <path d="m72.8 50.1c-0.1 0-0.3 0-0.4-0.1l-7.5-3.3 0.8-1.8 7.1 3.1 12.1-5.3-12.1-5.3-7.1 3.1-0.8-1.8 7.5-3.3c0.3-0.1 0.5-0.1 0.8 0l14.5 6.4c0.4 0.2 0.6 0.5 0.6 0.9s-0.2 0.8-0.6 0.9l-14.5 6.4c-0.1 0-0.2 0.1-0.4 0.1z"/>
   <rect x="71.8" y="49.1" width="2" height="23.9"/>
   <path d="m72.8 73.9c-0.1 0-0.3 0-0.4-0.1l-7.6-3.3 0.8-1.8 7.2 3.2 13.5-6v-23.2h2v23.9c0 0.4-0.2 0.8-0.6 0.9l-14.5 6.4h-0.4z"/>
  </g>
 </g>
</svg>
